<?xml version="1.0" encoding="UTF-8"?>
<!DOCTYPE svg PUBLIC "-//W3C//DTD SVG 1.1//EN" "http://www.w3.org/Graphics/SVG/1.1/DTD/svg11.dtd">
<svg xmlns="http://www.w3.org/2000/svg" version="1.1" width="512px" height="512px" style="shape-rendering:geometricPrecision; text-rendering:geometricPrecision; image-rendering:optimizeQuality; fill-rule:evenodd; clip-rule:evenodd" xmlns:xlink="http://www.w3.org/1999/xlink">
<g><path style="opacity:0.959" fill="#fff" d="M 106.5,-0.5 C 110.5,-0.5 114.5,-0.5 118.5,-0.5C 140.636,16.4569 149.47,38.7902 145,66.5C 142.638,74.2258 138.971,81.2258 134,87.5C 128.302,93.5325 122.302,99.1991 116,104.5C 109.085,112.636 107.752,121.636 112,131.5C 115.567,137.736 119.9,143.403 125,148.5C 130.255,157.645 128.755,165.479 120.5,172C 115.167,174 109.833,174 104.5,172C 84.0747,154.721 75.9081,132.888 80,106.5C 82.3621,98.7742 86.0288,91.7742 91,85.5C 96.6979,79.4675 102.698,73.8009 109,68.5C 115.915,60.3644 117.248,51.3644 113,41.5C 109.433,35.2642 105.1,29.5975 100,24.5C 94.7098,14.2495 96.8764,5.91614 106.5,-0.5 Z"/></g>
<g><path style="opacity:0.957" fill="#fff" d="M 202.5,-0.5 C 206.167,-0.5 209.833,-0.5 213.5,-0.5C 235.604,15.9504 244.771,37.9504 241,65.5C 238.305,73.8914 234.305,81.558 229,88.5C 223.191,94.398 217.191,100.065 211,105.5C 203.763,116.072 203.763,126.738 211,137.5C 214.667,141.833 218.333,146.167 222,150.5C 226.017,166.477 219.85,173.977 203.5,173C 201.275,172.439 199.275,171.439 197.5,170C 178.32,152.461 171.154,130.961 176,105.5C 179.213,96.0713 184.213,87.738 191,80.5C 196.635,75.8665 201.968,70.8665 207,65.5C 211.906,58.1692 212.573,50.5025 209,42.5C 204.776,34.9432 199.776,27.9432 194,21.5C 191.056,11.8207 193.889,4.48741 202.5,-0.5 Z"/></g>
<g><path style="opacity:0.957" fill="#fff" d="M 298.5,-0.5 C 302.167,-0.5 305.833,-0.5 309.5,-0.5C 331.273,15.724 340.439,37.3907 337,64.5C 334.325,74.8555 329.325,83.8555 322,91.5C 313.913,97.585 307.246,104.918 302,113.5C 299.958,121.684 301.291,129.35 306,136.5C 309.667,140.833 313.333,145.167 317,149.5C 321.909,159.772 319.409,167.605 309.5,173C 304.232,174.068 299.232,173.401 294.5,171C 274.273,153.065 266.773,130.898 272,104.5C 274.722,96.7177 278.722,89.7177 284,83.5C 290.302,78.1991 296.302,72.5325 302,66.5C 308.872,57.413 309.205,48.0797 303,38.5C 298.577,31.9888 293.911,25.6554 289,19.5C 287.112,10.2925 290.279,3.62585 298.5,-0.5 Z"/></g>
<g><path style="opacity:0.972" fill="#fff" d="M 406.5,511.5 C 274.5,511.5 142.5,511.5 10.5,511.5C 1.00587,506.482 -1.82746,498.815 2,488.5C 3.88404,485.616 6.38404,483.449 9.5,482C 37.7849,480.7 66.1183,480.033 94.5,480C 40.2213,445.323 9.05466,395.823 1,331.5C 0.333333,297.5 0.333333,263.5 1,229.5C 2.39988,226.098 4.56655,223.264 7.5,221C 140.444,219.339 273.444,219.005 406.5,220C 410.667,221.5 413.5,224.333 415,228.5C 416.351,234.072 416.851,239.738 416.5,245.5C 448.918,241.241 475.418,251.574 496,276.5C 512.18,301.061 514.846,327.061 504,354.5C 492.575,377.914 474.075,392.414 448.5,398C 430.861,399.081 413.194,399.915 395.5,400.5C 378.278,433.89 353.612,460.39 321.5,480C 349.882,480.033 378.215,480.7 406.5,482C 416.688,487.912 418.854,496.078 413,506.5C 411.035,508.55 408.868,510.217 406.5,511.5 Z M 31.5,250.5 C 149.5,250.5 267.5,250.5 385.5,250.5C 385.667,272.503 385.5,294.503 385,316.5C 380.099,383.826 347.599,432.659 287.5,463C 218.504,492.377 153.837,485.044 93.5,441C 57.6682,411.176 37.1682,373.009 32,326.5C 31.5,301.169 31.3334,275.836 31.5,250.5 Z M 416.5,276.5 C 443.265,271.805 463.099,281.138 476,304.5C 484.6,331.98 476.1,352.147 450.5,365C 436.686,368.494 422.686,369.327 408.5,367.5C 411.633,357.039 413.799,346.372 415,335.5C 416.311,315.857 416.811,296.191 416.5,276.5 Z"/></g>
</svg>
